<mxfile host="app.diagrams.net" modified="2021-01-24T09:22:17.120Z" agent="5.0 (Macintosh; Intel Mac OS X 10_15_6) AppleWebKit/605.1.15 (KHTML, like Gecko) Version/14.0.1 Safari/605.1.15" etag="hLGoQrow3e8LoNSn_4Nw" version="14.2.7" type="github">
  <diagram id="K0Zaxytf3lAqN4jVtOK2" name="Page-1">
    <mxGraphModel dx="946" dy="549" grid="1" gridSize="10" guides="1" tooltips="1" connect="1" arrows="1" fold="1" page="1" pageScale="1" pageWidth="827" pageHeight="1169" math="0" shadow="0">
      <root>
        <mxCell id="0" />
        <mxCell id="1" parent="0" />
        <mxCell id="kl9wADyrBPCwq1NXB2JM-1" value="初级数据分析从业人群" style="text;html=1;align=center;verticalAlign=middle;resizable=0;points=[];autosize=1;fillColor=#e1d5e7;strokeColor=#9673a6;fontStyle=1" vertex="1" parent="1">
          <mxGeometry x="70" y="140" width="140" height="20" as="geometry" />
        </mxCell>
        <mxCell id="kl9wADyrBPCwq1NXB2JM-2" value="python编程人员" style="text;html=1;align=center;verticalAlign=middle;resizable=0;points=[];autosize=1;fillColor=#f8cecc;strokeColor=#b85450;fontStyle=1" vertex="1" parent="1">
          <mxGeometry x="70" y="240" width="100" height="20" as="geometry" />
        </mxCell>
        <mxCell id="kl9wADyrBPCwq1NXB2JM-3" value="适合人群" style="rounded=1;whiteSpace=wrap;html=1;fontSize=12;fontColor=#ffffff;fillColor=#000000;strokeColor=none;glass=0;sketch=0;shadow=0;fontStyle=3" vertex="1" parent="1">
          <mxGeometry x="70" y="90" width="300" height="30" as="geometry" />
        </mxCell>
        <mxCell id="kl9wADyrBPCwq1NXB2JM-4" value="点亮技能" style="rounded=1;whiteSpace=wrap;html=1;fontSize=12;fontColor=#ffffff;fillColor=#000000;strokeColor=none;glass=0;sketch=0;shadow=0;fontStyle=3" vertex="1" parent="1">
          <mxGeometry x="430" y="90" width="300" height="30" as="geometry" />
        </mxCell>
        <mxCell id="kl9wADyrBPCwq1NXB2JM-5" value="职场转行人群" style="text;html=1;align=center;verticalAlign=middle;resizable=0;points=[];autosize=1;fontSize=12;fillColor=#fad7ac;strokeColor=#b46504;fontStyle=1" vertex="1" parent="1">
          <mxGeometry x="70" y="340" width="90" height="20" as="geometry" />
        </mxCell>
        <mxCell id="kl9wADyrBPCwq1NXB2JM-6" value="大学生人群" style="text;html=1;align=center;verticalAlign=middle;resizable=0;points=[];autosize=1;fontSize=12;fillColor=#fad7ac;strokeColor=#b46504;fontStyle=1" vertex="1" parent="1">
          <mxGeometry x="175" y="340" width="80" height="20" as="geometry" />
        </mxCell>
        <mxCell id="kl9wADyrBPCwq1NXB2JM-7" value="数据分析原理" style="text;html=1;align=center;verticalAlign=middle;resizable=0;points=[];autosize=1;fontSize=12;" vertex="1" parent="1">
          <mxGeometry x="70" y="170" width="90" height="20" as="geometry" />
        </mxCell>
        <mxCell id="kl9wADyrBPCwq1NXB2JM-8" value="数据分析经验" style="text;html=1;align=center;verticalAlign=middle;resizable=0;points=[];autosize=1;fontSize=12;" vertex="1" parent="1">
          <mxGeometry x="170" y="170" width="90" height="20" as="geometry" />
        </mxCell>
        <mxCell id="kl9wADyrBPCwq1NXB2JM-9" value="Excel，SQL" style="text;html=1;align=center;verticalAlign=middle;resizable=0;points=[];autosize=1;fontSize=12;" vertex="1" parent="1">
          <mxGeometry x="270" y="170" width="80" height="20" as="geometry" />
        </mxCell>
        <mxCell id="kl9wADyrBPCwq1NXB2JM-10" value="基于python语言的数据分析技能" style="text;html=1;align=center;verticalAlign=middle;resizable=0;points=[];autosize=1;fontColor=#A680B8;fontStyle=1" vertex="1" parent="1">
          <mxGeometry x="425" y="140" width="190" height="20" as="geometry" />
        </mxCell>
        <mxCell id="kl9wADyrBPCwq1NXB2JM-11" value="更高效" style="text;html=1;align=center;verticalAlign=middle;resizable=0;points=[];autosize=1;fontSize=12;fillColor=#A680B8;fontColor=#FFFFFF;" vertex="1" parent="1">
          <mxGeometry x="430" y="170" width="50" height="20" as="geometry" />
        </mxCell>
        <mxCell id="kl9wADyrBPCwq1NXB2JM-12" value="处理更大量级数据" style="text;html=1;align=center;verticalAlign=middle;resizable=0;points=[];autosize=1;fontSize=12;fillColor=#A680B8;fontColor=#FFFFFF;" vertex="1" parent="1">
          <mxGeometry x="490" y="170" width="110" height="20" as="geometry" />
        </mxCell>
        <mxCell id="kl9wADyrBPCwq1NXB2JM-13" value="职场晋升技能点" style="text;html=1;align=center;verticalAlign=middle;resizable=0;points=[];autosize=1;fontSize=12;fillColor=#A680B8;fontColor=#FFFFFF;" vertex="1" parent="1">
          <mxGeometry x="610" y="170" width="100" height="20" as="geometry" />
        </mxCell>
        <mxCell id="kl9wADyrBPCwq1NXB2JM-14" value="数据分析方法及应用" style="text;html=1;align=center;verticalAlign=middle;resizable=0;points=[];autosize=1;fontStyle=1;fontColor=#EA6B66;" vertex="1" parent="1">
          <mxGeometry x="430" y="240" width="120" height="20" as="geometry" />
        </mxCell>
        <mxCell id="kl9wADyrBPCwq1NXB2JM-15" value="python语言基础" style="text;html=1;align=center;verticalAlign=middle;resizable=0;points=[];autosize=1;fontSize=12;" vertex="1" parent="1">
          <mxGeometry x="70" y="270" width="100" height="20" as="geometry" />
        </mxCell>
        <mxCell id="kl9wADyrBPCwq1NXB2JM-16" value="数据分析原理" style="text;html=1;align=center;verticalAlign=middle;resizable=0;points=[];autosize=1;fontSize=12;fillColor=#EA6B66;fontColor=#FFFFFF;" vertex="1" parent="1">
          <mxGeometry x="430" y="270" width="90" height="20" as="geometry" />
        </mxCell>
        <mxCell id="kl9wADyrBPCwq1NXB2JM-17" value="数据分析方法" style="text;html=1;align=center;verticalAlign=middle;resizable=0;points=[];autosize=1;fontSize=12;fillColor=#EA6B66;fontColor=#FFFFFF;" vertex="1" parent="1">
          <mxGeometry x="535" y="270" width="90" height="20" as="geometry" />
        </mxCell>
        <mxCell id="kl9wADyrBPCwq1NXB2JM-18" value="python延展应用" style="text;html=1;align=center;verticalAlign=middle;resizable=0;points=[];autosize=1;fontSize=12;fillColor=#EA6B66;fontColor=#FFFFFF;" vertex="1" parent="1">
          <mxGeometry x="640" y="270" width="100" height="20" as="geometry" />
        </mxCell>
        <mxCell id="kl9wADyrBPCwq1NXB2JM-19" value="其他技能" style="text;html=1;align=center;verticalAlign=middle;resizable=0;points=[];autosize=1;fontSize=12;fontColor=#000000;" vertex="1" parent="1">
          <mxGeometry x="70" y="370" width="60" height="20" as="geometry" />
        </mxCell>
        <mxCell id="kl9wADyrBPCwq1NXB2JM-20" value="python入门&amp;amp;数据分析入门两手抓" style="text;html=1;align=center;verticalAlign=middle;resizable=0;points=[];autosize=1;fontSize=12;fontColor=#FFB570;fontStyle=1" vertex="1" parent="1">
          <mxGeometry x="425" y="340" width="200" height="20" as="geometry" />
        </mxCell>
        <mxCell id="kl9wADyrBPCwq1NXB2JM-21" value="python语言入门基础" style="text;html=1;align=center;verticalAlign=middle;resizable=0;points=[];autosize=1;fontSize=12;fillColor=#FFB570;fontColor=#FFFFFF;" vertex="1" parent="1">
          <mxGeometry x="430" y="370" width="120" height="20" as="geometry" />
        </mxCell>
        <mxCell id="kl9wADyrBPCwq1NXB2JM-22" value="数据分析0到1思维学习" style="text;html=1;align=center;verticalAlign=middle;resizable=0;points=[];autosize=1;fontSize=12;fillColor=#FFB570;fontColor=#FFFFFF;" vertex="1" parent="1">
          <mxGeometry x="430" y="400" width="140" height="20" as="geometry" />
        </mxCell>
        <mxCell id="kl9wADyrBPCwq1NXB2JM-23" value="数据分析分析示例" style="text;html=1;align=center;verticalAlign=middle;resizable=0;points=[];autosize=1;fontSize=12;fillColor=#FFB570;fontColor=#FFFFFF;" vertex="1" parent="1">
          <mxGeometry x="590" y="400" width="110" height="20" as="geometry" />
        </mxCell>
        <mxCell id="kl9wADyrBPCwq1NXB2JM-24" value="python重要库学习" style="text;html=1;align=center;verticalAlign=middle;resizable=0;points=[];autosize=1;fontSize=12;fillColor=#FFB570;fontColor=#FFFFFF;" vertex="1" parent="1">
          <mxGeometry x="565" y="370" width="110" height="20" as="geometry" />
        </mxCell>
        <mxCell id="kl9wADyrBPCwq1NXB2JM-25" value="" style="endArrow=none;html=1;fontSize=12;fontColor=#FFB570;" edge="1" parent="1">
          <mxGeometry width="50" height="50" relative="1" as="geometry">
            <mxPoint x="75" y="220" as="sourcePoint" />
            <mxPoint x="740" y="220" as="targetPoint" />
          </mxGeometry>
        </mxCell>
        <mxCell id="kl9wADyrBPCwq1NXB2JM-26" value="" style="endArrow=none;html=1;fontSize=12;fontColor=#FFB570;" edge="1" parent="1">
          <mxGeometry width="50" height="50" relative="1" as="geometry">
            <mxPoint x="75" y="320" as="sourcePoint" />
            <mxPoint x="740" y="320" as="targetPoint" />
          </mxGeometry>
        </mxCell>
        <mxCell id="kl9wADyrBPCwq1NXB2JM-27" value="" style="endArrow=none;html=1;fontSize=12;fontColor=#FFB570;dashed=1;" edge="1" parent="1">
          <mxGeometry width="50" height="50" relative="1" as="geometry">
            <mxPoint x="400" y="110" as="sourcePoint" />
            <mxPoint x="400" y="430" as="targetPoint" />
          </mxGeometry>
        </mxCell>
        <mxCell id="kl9wADyrBPCwq1NXB2JM-28" value="" style="shape=flexArrow;endArrow=classic;html=1;fontSize=12;fontColor=#FFB570;endWidth=11.03448275862069;endSize=4.979310344827586;gradientDirection=east;fillColor=#FFFFFF;strokeColor=none;gradientColor=#A680B8;" edge="1" parent="1">
          <mxGeometry width="50" height="50" relative="1" as="geometry">
            <mxPoint x="378" y="169.30999999999995" as="sourcePoint" />
            <mxPoint x="418" y="169.30999999999995" as="targetPoint" />
            <Array as="points">
              <mxPoint x="398" y="169.31" />
            </Array>
          </mxGeometry>
        </mxCell>
        <mxCell id="kl9wADyrBPCwq1NXB2JM-29" value="" style="shape=flexArrow;endArrow=classic;html=1;fontSize=12;fontColor=#FFB570;endWidth=11.03448275862069;endSize=4.979310344827586;gradientDirection=east;fillColor=#FFFFFF;strokeColor=none;gradientColor=#EA6B66;" edge="1" parent="1">
          <mxGeometry width="50" height="50" relative="1" as="geometry">
            <mxPoint x="380" y="269.30999999999995" as="sourcePoint" />
            <mxPoint x="420" y="269.30999999999995" as="targetPoint" />
            <Array as="points">
              <mxPoint x="400" y="269.31" />
            </Array>
          </mxGeometry>
        </mxCell>
        <mxCell id="kl9wADyrBPCwq1NXB2JM-30" value="" style="shape=flexArrow;endArrow=classic;html=1;fontSize=12;fontColor=#FFB570;endWidth=11.03448275862069;endSize=4.979310344827586;gradientDirection=east;fillColor=#FFFFFF;strokeColor=none;gradientColor=#FFB570;" edge="1" parent="1">
          <mxGeometry width="50" height="50" relative="1" as="geometry">
            <mxPoint x="380" y="370" as="sourcePoint" />
            <mxPoint x="420" y="370" as="targetPoint" />
            <Array as="points">
              <mxPoint x="400" y="370" />
            </Array>
          </mxGeometry>
        </mxCell>
      </root>
    </mxGraphModel>
  </diagram>
</mxfile>
